<svg xmlns="http://www.w3.org/2000/svg" viewBox="0 0 280 50" fill="none">
  <!-- Swimmer Icon Circle -->
  <defs>
    <linearGradient id="bg" x1="0" y1="0" x2="0" y2="1">
      <stop offset="0%" stop-color="#2E86C1"/>
      <stop offset="100%" stop-color="#5DADE2"/>
    </linearGradient>
  </defs>
  <rect x="0" y="2" width="46" height="46" rx="10" fill="url(#bg)"/>
  <!-- Swimmer -->
  <circle cx="20" cy="16" r="4.5" fill="white"/>
  <path d="M16 22 C18 20, 22 19, 30 17 C32 16.5, 34 17, 33 19 C30 21, 24 23, 18 24 Z" fill="white" opacity="0.95"/>
  <path d="M20 24 C19 26, 18 29, 17 32" stroke="white" stroke-width="2.2" stroke-linecap="round" fill="none"/>
  <path d="M22 23.5 C23 26, 24 29, 25 31" stroke="white" stroke-width="2.2" stroke-linecap="round" fill="none"/>
  <!-- Waves -->
  <path d="M8 34 Q12 31, 16 34 Q20 37, 24 34 Q28 31, 32 34 Q36 37, 40 34" stroke="white" stroke-width="1.8" fill="none" opacity="0.8" stroke-linecap="round"/>
  <path d="M10 39 Q14 36, 18 39 Q22 42, 26 39 Q30 36, 34 39 Q38 42, 42 39" stroke="white" stroke-width="1.5" fill="none" opacity="0.5" stroke-linecap="round"/>
  <!-- Text -->
  <text x="56" y="22" font-family="system-ui, -apple-system, 'Segoe UI', sans-serif" font-weight="800" font-size="18" fill="white" letter-spacing="2">WORTHEY</text>
  <!-- Dot divider -->
  <circle cx="58" cy="30" r="1" fill="#5DADE2"/>
  <circle cx="64" cy="30" r="1" fill="#5DADE2"/>
  <circle cx="70" cy="30" r="1" fill="#5DADE2"/>
  <circle cx="76" cy="30" r="1" fill="#5DADE2"/>
  <circle cx="82" cy="30" r="1" fill="#5DADE2"/>
  <circle cx="88" cy="30" r="1" fill="#5DADE2"/>
  <circle cx="94" cy="30" r="1" fill="#5DADE2"/>
  <circle cx="100" cy="30" r="1" fill="#5DADE2"/>
  <circle cx="106" cy="30" r="1" fill="#5DADE2"/>
  <circle cx="112" cy="30" r="1" fill="#5DADE2"/>
  <circle cx="118" cy="30" r="1" fill="#5DADE2"/>
  <circle cx="124" cy="30" r="1" fill="#5DADE2"/>
  <circle cx="130" cy="30" r="1" fill="#5DADE2"/>
  <circle cx="136" cy="30" r="1" fill="#5DADE2"/>
  <circle cx="142" cy="30" r="1" fill="#5DADE2"/>
  <circle cx="148" cy="30" r="1" fill="#5DADE2"/>
  <text x="56" y="44" font-family="system-ui, -apple-system, 'Segoe UI', sans-serif" font-weight="700" font-size="14" fill="#5DADE2" letter-spacing="3.5">AQUATICS</text>
</svg>
